<svg width="129" height="128" viewBox="0 0 129 128" fill="none" xmlns="http://www.w3.org/2000/svg">
<g filter="url(#filter0_dd)">
<rect x="16.5" y="24" width="80" height="16" rx="8" fill="url(#paint0_linear)"/>
<rect x="16.5" y="56" width="96" height="16" rx="8" fill="url(#paint1_linear)"/>
<rect x="16.5" y="88" width="48" height="16" rx="8" fill="url(#paint2_linear)"/>
<path d="M65.9078 64.0608L109.661 79.5705C110.031 79.7016 110.297 80.0257 110.353 80.412C110.407 80.8057 110.248 81.1871 109.933 81.4172L99.1712 89.2931L112.19 102.313C112.396 102.519 112.5 102.789 112.5 103.06C112.5 103.33 112.396 103.6 112.19 103.806L104.306 111.69C103.893 112.103 103.226 112.103 102.813 111.69L89.7922 98.6714L81.9175 109.434C81.6862 109.749 81.2999 109.912 80.9123 109.855C80.5247 109.798 80.2007 109.532 80.0708 109.163L64.5611 65.41C64.4247 65.0256 64.5208 64.5982 64.809 64.3107C65.0956 64.0217 65.5235 63.9244 65.9078 64.0608Z" fill="white"/>
</g>
<defs>
<filter id="filter0_dd" x="-3.5" y="-3" width="138" height="138" filterUnits="userSpaceOnUse" color-interpolation-filters="sRGB">
<feFlood flood-opacity="0" result="BackgroundImageFix"/>
<feColorMatrix in="SourceAlpha" type="matrix" values="0 0 0 0 0 0 0 0 0 0 0 0 0 0 0 0 0 0 127 0"/>
<feOffset dx="1" dy="1"/>
<feGaussianBlur stdDeviation="0.5"/>
<feColorMatrix type="matrix" values="0 0 0 0 0 0 0 0 0 0 0 0 0 0 0 0 0 0 0.15 0"/>
<feBlend mode="normal" in2="BackgroundImageFix" result="effect1_dropShadow"/>
<feColorMatrix in="SourceAlpha" type="matrix" values="0 0 0 0 0 0 0 0 0 0 0 0 0 0 0 0 0 0 127 0"/>
<feOffset dx="1" dy="2"/>
<feGaussianBlur stdDeviation="2.5"/>
<feColorMatrix type="matrix" values="0 0 0 0 0 0 0 0 0 0 0 0 0 0 0 0 0 0 0.3 0"/>
<feBlend mode="normal" in2="effect1_dropShadow" result="effect2_dropShadow"/>
<feBlend mode="normal" in="SourceGraphic" in2="effect2_dropShadow" result="shape"/>
</filter>
<linearGradient id="paint0_linear" x1="56.5" y1="24" x2="56.5" y2="40" gradientUnits="userSpaceOnUse">
<stop stop-color="#8633F3"/>
<stop offset="1" stop-color="#5F10B6"/>
</linearGradient>
<linearGradient id="paint1_linear" x1="64.5" y1="56" x2="64.5" y2="72" gradientUnits="userSpaceOnUse">
<stop stop-color="#FF4DCC"/>
<stop offset="1" stop-color="#AB24AB"/>
</linearGradient>
<linearGradient id="paint2_linear" x1="40.5" y1="88" x2="40.5" y2="104" gradientUnits="userSpaceOnUse">
<stop stop-color="#8633F3"/>
<stop offset="1" stop-color="#5F10B6"/>
</linearGradient>
</defs>
</svg>
